<?xml version="1.0" encoding="iso-8859-1"?>
<!-- Generator: Adobe Illustrator 19.1.0, SVG Export Plug-In . SVG Version: 6.00 Build 0)  -->
<svg version="1.1" id="Capa_1" xmlns="http://www.w3.org/2000/svg" xmlns:xlink="http://www.w3.org/1999/xlink" x="0px" y="0px"
	 viewBox="0 0 37.931 37.931" style="enable-background:new 0 0 37.931 37.931;" xml:space="preserve">
<path d="M19.468,37.786c-7.147,0-14.038-3.954-17.434-10.774c-4.775-9.596-0.855-21.287,8.739-26.064
	c0.557-0.277,1.155-0.538,1.778-0.776c0.163-0.063,0.346-0.012,0.455,0.124c0.108,0.136,0.117,0.326,0.021,0.471
	C9.672,5.839,9.264,12.36,11.963,17.781c4.188,8.418,14.445,11.859,22.863,7.667l0,0c0.814-0.405,1.622-0.903,2.468-1.522
	c0.139-0.102,0.33-0.104,0.471-0.001s0.2,0.283,0.146,0.448c-1.63,4.999-5.114,9.039-9.811,11.378
	C25.325,37.132,22.375,37.786,19.468,37.786z M11.709,1.389c-0.197,0.09-0.391,0.182-0.578,0.275c-9.2,4.58-12.96,15.791-8.38,24.99
	c4.579,9.201,15.793,12.963,24.991,8.38c4.135-2.058,7.29-5.492,8.988-9.751c-0.519,0.333-1.031,0.624-1.547,0.882l0,0
	c-8.813,4.387-19.551,0.786-23.938-8.026C8.606,12.834,8.805,6.527,11.709,1.389z"/>
<g>
</g>
<g>
</g>
<g>
</g>
<g>
</g>
<g>
</g>
<g>
</g>
<g>
</g>
<g>
</g>
<g>
</g>
<g>
</g>
<g>
</g>
<g>
</g>
<g>
</g>
<g>
</g>
<g>
</g>
</svg>
