<?xml version="1.0" encoding="iso-8859-1"?>
<!-- Generator: Adobe Illustrator 18.1.1, SVG Export Plug-In . SVG Version: 6.00 Build 0)  -->
<svg version="1.1" id="Capa_1" xmlns="http://www.w3.org/2000/svg" xmlns:xlink="http://www.w3.org/1999/xlink" x="0px" y="0px"
	 viewBox="0 0 502.749 502.749" style="enable-background:new 0 0 502.749 502.749;" xml:space="preserve">
<g>
	<g>
		<path d="M394.4,148.299c1.417,0,2.833,0.283,4.25,0.283l0,0c39.1,0,71.683-30.883,73.95-69.983
			c2.267-40.8-28.9-75.933-69.7-78.483c-41.083-2.267-75.933,29.183-78.2,69.7c-0.567,9.917,0.85,19.267,3.683,28.05L152.15,202.982
			c-13.033-11.05-29.75-17.85-48.167-17.85c-40.8,0-73.95,33.15-73.95,73.95s33.15,73.95,73.95,73.95
			c17.283,0,33.433-5.95,45.9-16.15l171.983,93.5c-4.533,17.567-2.267,35.983,6.233,52.133c12.75,24.65,37.967,40.233,65.733,40.233
			l0,0c11.9,0,23.517-3.117,34-8.783c36.267-18.7,50.433-64.033,31.733-100.017c-12.75-24.65-37.967-39.95-65.733-39.95
			c-11.9,0-23.517,2.833-34,8.5c-8.5,4.533-16.15,10.483-22.1,17.567l-166.317-90.383c4.25-9.35,6.8-19.833,6.8-30.883
			c0-10.2-1.983-19.833-5.667-28.617l174.25-103.417C358.983,139.232,375.699,147.449,394.4,148.299z M358.699,72.082
			c1.133-21.25,18.7-37.683,39.95-37.683c0.85,0,1.7,0,2.267,0c22.1,1.417,38.817,20.117,37.683,42.217
			c-1.133,21.817-20.117,38.817-42.217,37.683C374.283,112.882,357.283,93.899,358.699,72.082z M64.033,259.082
			c0-22.1,17.85-39.95,39.95-39.95s39.95,17.85,39.95,39.95s-17.85,39.95-39.95,39.95S64.033,281.182,64.033,259.082z
			 M375.416,392.815c5.667-3.117,11.9-4.533,18.417-4.533c15.017,0,28.617,8.217,35.7,21.533c10.2,19.55,2.55,43.917-17,53.833
			c-5.667,3.117-11.9,4.533-18.417,4.533l0,0c-15.017,0-28.617-8.217-35.7-21.533c-4.817-9.35-5.95-20.4-2.55-30.6
			C358.699,406.132,365.783,397.632,375.416,392.815z"/>
	</g>
</g>
<g>
</g>
<g>
</g>
<g>
</g>
<g>
</g>
<g>
</g>
<g>
</g>
<g>
</g>
<g>
</g>
<g>
</g>
<g>
</g>
<g>
</g>
<g>
</g>
<g>
</g>
<g>
</g>
<g>
</g>
</svg>
